<svg xmlns="http://www.w3.org/2000/svg" viewBox="0 0 100 100">
  <defs>
    <linearGradient id="leafGradient" x1="0%" y1="0%" x2="100%" y2="100%">
      <stop offset="0%" style="stop-color:#4ade80;stop-opacity:1" />
      <stop offset="50%" style="stop-color:#22c55e;stop-opacity:1" />
      <stop offset="100%" style="stop-color:#16a34a;stop-opacity:1" />
    </linearGradient>
  </defs>

  <!-- Leaf shape -->
  <path d="M 50 10 Q 80 30, 85 60 Q 85 80, 65 90 Q 55 95, 50 95 Q 50 95, 50 10 Z"
        fill="url(#leafGradient)"
        stroke="#15803d"
        stroke-width="2"/>

  <path d="M 50 10 Q 20 30, 15 60 Q 15 80, 35 90 Q 45 95, 50 95 Q 50 95, 50 10 Z"
        fill="url(#leafGradient)"
        stroke="#15803d"
        stroke-width="2"/>

  <!-- Leaf vein -->
  <line x1="50" y1="15" x2="50" y2="90"
        stroke="#15803d"
        stroke-width="2"
        stroke-linecap="round"/>

  <!-- Side veins -->
  <line x1="50" y1="30" x2="35" y2="40" stroke="#15803d" stroke-width="1.5" opacity="0.7"/>
  <line x1="50" y1="30" x2="65" y2="40" stroke="#15803d" stroke-width="1.5" opacity="0.7"/>
  <line x1="50" y1="45" x2="30" y2="55" stroke="#15803d" stroke-width="1.5" opacity="0.7"/>
  <line x1="50" y1="45" x2="70" y2="55" stroke="#15803d" stroke-width="1.5" opacity="0.7"/>
  <line x1="50" y1="60" x2="32" y2="68" stroke="#15803d" stroke-width="1.5" opacity="0.7"/>
  <line x1="50" y1="60" x2="68" y2="68" stroke="#15803d" stroke-width="1.5" opacity="0.7"/>
  <line x1="50" y1="75" x2="38" y2="80" stroke="#15803d" stroke-width="1.5" opacity="0.7"/>
  <line x1="50" y1="75" x2="62" y2="80" stroke="#15803d" stroke-width="1.5" opacity="0.7"/>
</svg>
